<svg width="433" height="31" viewBox="0 0 433 31" fill="none" xmlns="http://www.w3.org/2000/svg">
<path d="M20.946 13.0909C20.946 15.4702 20.495 17.4943 19.593 19.1634C18.6982 20.8324 17.4766 22.1072 15.9283 22.9879C14.3871 23.8615 12.6541 24.2983 10.7294 24.2983C8.79048 24.2983 7.05043 23.858 5.50923 22.9773C3.96804 22.0966 2.75 20.8217 1.85511 19.1527C0.960227 17.4837 0.512784 15.4631 0.512784 13.0909C0.512784 10.7116 0.960227 8.6875 1.85511 7.01847C2.75 5.34943 3.96804 4.07812 5.50923 3.20455C7.05043 2.32386 8.79048 1.88352 10.7294 1.88352C12.6541 1.88352 14.3871 2.32386 15.9283 3.20455C17.4766 4.07812 18.6982 5.34943 19.593 7.01847C20.495 8.6875 20.946 10.7116 20.946 13.0909ZM16.2692 13.0909C16.2692 11.5497 16.0384 10.25 15.5767 9.19176C15.1222 8.13352 14.4794 7.33097 13.6484 6.78409C12.8175 6.23722 11.8445 5.96378 10.7294 5.96378C9.61435 5.96378 8.64134 6.23722 7.81037 6.78409C6.9794 7.33097 6.3331 8.13352 5.87145 9.19176C5.4169 10.25 5.18963 11.5497 5.18963 13.0909C5.18963 14.6321 5.4169 15.9318 5.87145 16.9901C6.3331 18.0483 6.9794 18.8509 7.81037 19.3977C8.64134 19.9446 9.61435 20.218 10.7294 20.218C11.8445 20.218 12.8175 19.9446 13.6484 19.3977C14.4794 18.8509 15.1222 18.0483 15.5767 16.9901C16.0384 15.9318 16.2692 14.6321 16.2692 13.0909ZM28.8162 2.18182V24H24.2779V2.18182H28.8162ZM37.1179 24.3089C36.0739 24.3089 35.1435 24.1278 34.3267 23.7656C33.5099 23.3963 32.8636 22.853 32.3878 22.1357C31.919 21.4112 31.6847 20.5092 31.6847 19.4297C31.6847 18.5206 31.8516 17.7571 32.1854 17.1392C32.5192 16.5213 32.9737 16.0241 33.549 15.6477C34.1243 15.2713 34.7777 14.9872 35.5092 14.7955C36.2479 14.6037 37.022 14.4688 37.8317 14.3906C38.7834 14.2912 39.5504 14.1989 40.1328 14.1136C40.7152 14.0213 41.1378 13.8864 41.4006 13.7088C41.6634 13.5312 41.7947 13.2685 41.7947 12.9205V12.8565C41.7947 12.1818 41.5817 11.6598 41.1555 11.2905C40.7365 10.9212 40.1399 10.7365 39.3658 10.7365C38.549 10.7365 37.8991 10.9176 37.4162 11.2798C36.9332 11.6349 36.6136 12.0824 36.4574 12.6222L32.2599 12.2812C32.473 11.2869 32.892 10.4276 33.517 9.70312C34.142 8.97159 34.9482 8.41051 35.9354 8.01989C36.9297 7.62216 38.0803 7.4233 39.3871 7.4233C40.2962 7.4233 41.1662 7.52983 41.9972 7.7429C42.8352 7.95597 43.5774 8.28622 44.2237 8.73366C44.8771 9.18111 45.392 9.75639 45.7685 10.4595C46.1449 11.1555 46.3331 11.9901 46.3331 12.9631V24H42.0291V21.7308H41.9013C41.6385 22.2422 41.2869 22.6932 40.8466 23.0838C40.4062 23.4673 39.8771 23.7692 39.2592 23.9893C38.6413 24.2024 37.9276 24.3089 37.1179 24.3089ZM38.4176 21.1768C39.0852 21.1768 39.6747 21.0455 40.1861 20.7827C40.6974 20.5128 41.0987 20.1506 41.3899 19.696C41.6811 19.2415 41.8267 18.7266 41.8267 18.1513V16.4148C41.6847 16.5071 41.4893 16.5923 41.2408 16.6705C40.9993 16.7415 40.7259 16.8089 40.4205 16.8729C40.1151 16.9297 39.8097 16.983 39.5043 17.0327C39.1989 17.0753 38.9219 17.1143 38.6733 17.1499C38.1406 17.228 37.6754 17.3523 37.2777 17.5227C36.88 17.6932 36.571 17.924 36.3509 18.2152C36.1307 18.4993 36.0206 18.8544 36.0206 19.2805C36.0206 19.8984 36.2443 20.3707 36.6918 20.6974C37.1463 21.017 37.7216 21.1768 38.4176 21.1768ZM37.9276 5.52699L40.1861 0.679688H44.3835L41.1342 5.52699H37.9276ZM54.7866 21.017L54.6694 22.1889C54.5771 23.1264 54.3995 24.0604 54.1367 24.9908C53.881 25.9283 53.6112 26.777 53.3271 27.5369C53.0501 28.2969 52.8263 28.8935 52.6559 29.3267H49.7156C49.8221 28.9077 49.9677 28.3217 50.1523 27.5689C50.337 26.8232 50.511 25.9851 50.6744 25.0547C50.8377 24.1243 50.9407 23.1761 50.9833 22.2102L51.0366 21.017H54.7866ZM64.854 24V7.63636H69.1793V10.5234H69.3711C69.712 9.56463 70.2802 8.80824 71.0756 8.25426C71.8711 7.70028 72.8228 7.4233 73.9308 7.4233C75.0529 7.4233 76.0082 7.70384 76.7965 8.26491C77.5849 8.81889 78.1104 9.57173 78.3732 10.5234H78.5437C78.8775 9.58594 79.4812 8.83665 80.3548 8.27557C81.2354 7.70739 82.2759 7.4233 83.4762 7.4233C85.0032 7.4233 86.2425 7.9098 87.1942 8.88281C88.1531 9.84872 88.6325 11.2195 88.6325 12.995V24H84.1048V13.8899C84.1048 12.9808 83.8633 12.299 83.3803 11.8445C82.8974 11.3899 82.2937 11.1626 81.5692 11.1626C80.7454 11.1626 80.1026 11.4254 79.641 11.951C79.1793 12.4695 78.9485 13.1548 78.9485 14.0071V24H74.5487V13.794C74.5487 12.9915 74.3178 12.3523 73.8562 11.8764C73.4016 11.4006 72.8015 11.1626 72.0558 11.1626C71.5515 11.1626 71.0969 11.2905 70.6921 11.5462C70.2944 11.7947 69.9783 12.1463 69.744 12.6009C69.5096 13.0483 69.3924 13.5739 69.3924 14.1776V24H64.854ZM99.6747 24.3196C97.9915 24.3196 96.5426 23.9787 95.3281 23.2969C94.1207 22.608 93.1903 21.6349 92.5369 20.3778C91.8835 19.1136 91.5568 17.6186 91.5568 15.8928C91.5568 14.2095 91.8835 12.7322 92.5369 11.4609C93.1903 10.1896 94.1101 9.19886 95.2962 8.48864C96.4893 7.77841 97.8885 7.4233 99.4936 7.4233C100.573 7.4233 101.578 7.5973 102.509 7.94531C103.446 8.28622 104.263 8.80114 104.959 9.49006C105.662 10.179 106.209 11.0455 106.599 12.0895C106.99 13.1264 107.185 14.3409 107.185 15.733V16.9794H93.3679V14.1669H102.913C102.913 13.5135 102.771 12.9347 102.487 12.4304C102.203 11.9261 101.809 11.532 101.305 11.2479C100.808 10.9567 100.229 10.8111 99.5682 10.8111C98.8793 10.8111 98.2685 10.9709 97.7358 11.2905C97.2102 11.603 96.7983 12.0256 96.5 12.5582C96.2017 13.0838 96.049 13.6697 96.0419 14.3161V16.9901C96.0419 17.7997 96.1911 18.4993 96.4893 19.0888C96.7947 19.6783 97.2244 20.1328 97.7784 20.4524C98.3324 20.772 98.9893 20.9318 99.7493 20.9318C100.254 20.9318 100.715 20.8608 101.134 20.7188C101.553 20.5767 101.912 20.3636 102.21 20.0795C102.509 19.7955 102.736 19.4474 102.892 19.0355L107.089 19.3125C106.876 20.321 106.44 21.2017 105.779 21.9545C105.126 22.7003 104.281 23.2827 103.244 23.7017C102.214 24.1136 101.024 24.3196 99.6747 24.3196ZM120.641 17.0327V7.63636H125.179V24H120.822V21.0277H120.651C120.282 21.9865 119.668 22.7571 118.808 23.3395C117.956 23.9219 116.915 24.2131 115.687 24.2131C114.593 24.2131 113.631 23.9645 112.8 23.4673C111.969 22.9702 111.319 22.2635 110.85 21.3473C110.388 20.4311 110.154 19.3338 110.147 18.0554V7.63636H114.685V17.2457C114.692 18.2116 114.952 18.9751 115.463 19.5362C115.974 20.0973 116.66 20.3778 117.519 20.3778C118.066 20.3778 118.577 20.2536 119.053 20.005C119.529 19.7493 119.913 19.3729 120.204 18.8757C120.502 18.3786 120.648 17.7642 120.641 17.0327ZM140.291 14.5398V24H135.752V7.63636H140.078V10.5234H140.27C140.632 9.57173 141.239 8.81889 142.091 8.26491C142.944 7.70384 143.977 7.4233 145.191 7.4233C146.328 7.4233 147.319 7.67187 148.164 8.16903C149.009 8.66619 149.666 9.37642 150.135 10.2997C150.603 11.2159 150.838 12.3097 150.838 13.581V24H146.299V14.3906C146.306 13.3892 146.051 12.608 145.532 12.0469C145.014 11.4787 144.3 11.1946 143.391 11.1946C142.78 11.1946 142.24 11.326 141.772 11.5888C141.31 11.8516 140.948 12.2351 140.685 12.7393C140.429 13.2365 140.298 13.8366 140.291 14.5398ZM161.808 24.3196C160.153 24.3196 158.722 23.968 157.515 23.2649C156.314 22.5547 155.388 21.5675 154.734 20.3033C154.081 19.032 153.754 17.5582 153.754 15.8821C153.754 14.1918 154.081 12.7145 154.734 11.4503C155.388 10.179 156.314 9.19176 157.515 8.48864C158.722 7.77841 160.153 7.4233 161.808 7.4233C163.463 7.4233 164.89 7.77841 166.091 8.48864C167.298 9.19176 168.229 10.179 168.882 11.4503C169.535 12.7145 169.862 14.1918 169.862 15.8821C169.862 17.5582 169.535 19.032 168.882 20.3033C168.229 21.5675 167.298 22.5547 166.091 23.2649C164.89 23.968 163.463 24.3196 161.808 24.3196ZM161.829 20.804C162.582 20.804 163.211 20.5909 163.715 20.1648C164.219 19.7315 164.599 19.142 164.855 18.3963C165.118 17.6506 165.249 16.8018 165.249 15.8501C165.249 14.8984 165.118 14.0497 164.855 13.304C164.599 12.5582 164.219 11.9687 163.715 11.5355C163.211 11.1023 162.582 10.8857 161.829 10.8857C161.069 10.8857 160.43 11.1023 159.912 11.5355C159.4 11.9687 159.013 12.5582 158.751 13.304C158.495 14.0497 158.367 14.8984 158.367 15.8501C158.367 16.8018 158.495 17.6506 158.751 18.3963C159.013 19.142 159.4 19.7315 159.912 20.1648C160.43 20.5909 161.069 20.804 161.829 20.804ZM172.813 24V7.63636H177.138V10.5234H177.33C177.671 9.56463 178.239 8.80824 179.035 8.25426C179.83 7.70028 180.782 7.4233 181.89 7.4233C183.012 7.4233 183.967 7.70384 184.756 8.26491C185.544 8.81889 186.069 9.57173 186.332 10.5234H186.503C186.836 9.58594 187.44 8.83665 188.314 8.27557C189.194 7.70739 190.235 7.4233 191.435 7.4233C192.962 7.4233 194.202 7.9098 195.153 8.88281C196.112 9.84872 196.591 11.2195 196.591 12.995V24H192.064V13.8899C192.064 12.9808 191.822 12.299 191.339 11.8445C190.856 11.3899 190.253 11.1626 189.528 11.1626C188.704 11.1626 188.062 11.4254 187.6 11.951C187.138 12.4695 186.907 13.1548 186.907 14.0071V24H182.508V13.794C182.508 12.9915 182.277 12.3523 181.815 11.8764C181.361 11.4006 180.76 11.1626 180.015 11.1626C179.51 11.1626 179.056 11.2905 178.651 11.5462C178.253 11.7947 177.937 12.1463 177.703 12.6009C177.469 13.0483 177.351 13.5739 177.351 14.1776V24H172.813ZM207.634 24.3196C205.95 24.3196 204.502 23.9787 203.287 23.2969C202.08 22.608 201.149 21.6349 200.496 20.3778C199.843 19.1136 199.516 17.6186 199.516 15.8928C199.516 14.2095 199.843 12.7322 200.496 11.4609C201.149 10.1896 202.069 9.19886 203.255 8.48864C204.448 7.77841 205.847 7.4233 207.453 7.4233C208.532 7.4233 209.537 7.5973 210.468 7.94531C211.405 8.28622 212.222 8.80114 212.918 9.49006C213.621 10.179 214.168 11.0455 214.558 12.0895C214.949 13.1264 215.144 14.3409 215.144 15.733V16.9794H201.327V14.1669H210.872C210.872 13.5135 210.73 12.9347 210.446 12.4304C210.162 11.9261 209.768 11.532 209.264 11.2479C208.767 10.9567 208.188 10.8111 207.527 10.8111C206.838 10.8111 206.227 10.9709 205.695 11.2905C205.169 11.603 204.757 12.0256 204.459 12.5582C204.161 13.0838 204.008 13.6697 204.001 14.3161V16.9901C204.001 17.7997 204.15 18.4993 204.448 19.0888C204.754 19.6783 205.183 20.1328 205.737 20.4524C206.291 20.772 206.948 20.9318 207.708 20.9318C208.213 20.9318 208.674 20.8608 209.093 20.7188C209.512 20.5767 209.871 20.3636 210.169 20.0795C210.468 19.7955 210.695 19.4474 210.851 19.0355L215.048 19.3125C214.835 20.321 214.399 21.2017 213.738 21.9545C213.085 22.7003 212.24 23.2827 211.203 23.7017C210.173 24.1136 208.983 24.3196 207.634 24.3196ZM232.507 24.3196C230.824 24.3196 229.375 23.9787 228.16 23.2969C226.953 22.608 226.022 21.6349 225.369 20.3778C224.716 19.1136 224.389 17.6186 224.389 15.8928C224.389 14.2095 224.716 12.7322 225.369 11.4609C226.022 10.1896 226.942 9.19886 228.128 8.48864C229.321 7.77841 230.721 7.4233 232.326 7.4233C233.405 7.4233 234.41 7.5973 235.341 7.94531C236.278 8.28622 237.095 8.80114 237.791 9.49006C238.494 10.179 239.041 11.0455 239.431 12.0895C239.822 13.1264 240.017 14.3409 240.017 15.733V16.9794H226.2V14.1669H235.745C235.745 13.5135 235.603 12.9347 235.319 12.4304C235.035 11.9261 234.641 11.532 234.137 11.2479C233.64 10.9567 233.061 10.8111 232.4 10.8111C231.711 10.8111 231.1 10.9709 230.568 11.2905C230.042 11.603 229.63 12.0256 229.332 12.5582C229.034 13.0838 228.881 13.6697 228.874 14.3161V16.9901C228.874 17.7997 229.023 18.4993 229.321 19.0888C229.627 19.6783 230.056 20.1328 230.61 20.4524C231.164 20.772 231.821 20.9318 232.581 20.9318C233.086 20.9318 233.547 20.8608 233.966 20.7188C234.385 20.5767 234.744 20.3636 235.042 20.0795C235.341 19.7955 235.568 19.4474 235.724 19.0355L239.922 19.3125C239.708 20.321 239.272 21.2017 238.611 21.9545C237.958 22.7003 237.113 23.2827 236.076 23.7017C235.046 24.1136 233.856 24.3196 232.507 24.3196ZM230.589 5.52699L232.848 0.679688H237.045L233.796 5.52699H230.589ZM253.949 2.18182L259.223 18.7585H259.425L264.709 2.18182H269.823L262.302 24H256.357L248.825 2.18182H253.949ZM272.364 24V7.63636H276.902V24H272.364ZM274.644 5.52699C273.969 5.52699 273.39 5.30327 272.907 4.85582C272.431 4.40128 272.193 3.85795 272.193 3.22585C272.193 2.60085 272.431 2.06463 272.907 1.61719C273.39 1.16264 273.969 0.935368 274.644 0.935368C275.318 0.935368 275.894 1.16264 276.369 1.61719C276.852 2.06463 277.094 2.60085 277.094 3.22585C277.094 3.85795 276.852 4.40128 276.369 4.85582C275.894 5.30327 275.318 5.52699 274.644 5.52699ZM289.241 7.63636V11.0455H279.387V7.63636H289.241ZM281.624 3.71591H286.163V18.9716C286.163 19.3906 286.227 19.7173 286.354 19.9517C286.482 20.179 286.66 20.3388 286.887 20.4311C287.121 20.5234 287.391 20.5696 287.697 20.5696C287.91 20.5696 288.123 20.5518 288.336 20.5163C288.549 20.4737 288.712 20.4418 288.826 20.4205L289.54 23.7976C289.313 23.8686 288.993 23.9503 288.581 24.0426C288.169 24.142 287.668 24.2024 287.079 24.2237C285.985 24.2663 285.026 24.1207 284.202 23.7869C283.386 23.4531 282.75 22.9347 282.295 22.2315C281.841 21.5284 281.617 20.6406 281.624 19.5682V3.71591ZM299.415 24.3196C297.761 24.3196 296.33 23.968 295.122 23.2649C293.922 22.5547 292.995 21.5675 292.342 20.3033C291.688 19.032 291.362 17.5582 291.362 15.8821C291.362 14.1918 291.688 12.7145 292.342 11.4503C292.995 10.179 293.922 9.19176 295.122 8.48864C296.33 7.77841 297.761 7.4233 299.415 7.4233C301.07 7.4233 302.498 7.77841 303.698 8.48864C304.906 9.19176 305.836 10.179 306.489 11.4503C307.143 12.7145 307.469 14.1918 307.469 15.8821C307.469 17.5582 307.143 19.032 306.489 20.3033C305.836 21.5675 304.906 22.5547 303.698 23.2649C302.498 23.968 301.07 24.3196 299.415 24.3196ZM299.437 20.804C300.19 20.804 300.818 20.5909 301.322 20.1648C301.827 19.7315 302.207 19.142 302.462 18.3963C302.725 17.6506 302.857 16.8018 302.857 15.8501C302.857 14.8984 302.725 14.0497 302.462 13.304C302.207 12.5582 301.827 11.9687 301.322 11.5355C300.818 11.1023 300.19 10.8857 299.437 10.8857C298.677 10.8857 298.038 11.1023 297.519 11.5355C297.008 11.9687 296.621 12.5582 296.358 13.304C296.102 14.0497 295.974 14.8984 295.974 15.8501C295.974 16.8018 296.102 17.6506 296.358 18.3963C296.621 19.142 297.008 19.7315 297.519 20.1648C298.038 20.5909 298.677 20.804 299.437 20.804ZM310.42 24V7.63636H314.82V10.4915H314.991C315.289 9.47585 315.79 8.70881 316.493 8.19034C317.196 7.66477 318.006 7.40199 318.922 7.40199C319.149 7.40199 319.394 7.41619 319.657 7.4446C319.92 7.47301 320.151 7.51207 320.349 7.56179V11.5888C320.136 11.5249 319.842 11.468 319.465 11.4183C319.089 11.3686 318.744 11.3438 318.432 11.3438C317.764 11.3438 317.168 11.4893 316.642 11.7805C316.124 12.0646 315.712 12.4624 315.406 12.9737C315.108 13.4851 314.959 14.0746 314.959 14.7422V24H310.42ZM333.485 24H328.542L336.074 2.18182H342.018L349.54 24H344.597L339.131 7.16761H338.961L333.485 24ZM333.176 15.424H344.852V19.0249H333.176V15.424ZM352.081 24V7.63636H356.48V10.4915H356.651C356.949 9.47585 357.45 8.70881 358.153 8.19034C358.856 7.66477 359.666 7.40199 360.582 7.40199C360.809 7.40199 361.054 7.41619 361.317 7.4446C361.58 7.47301 361.811 7.51207 362.01 7.56179V11.5888C361.797 11.5249 361.502 11.468 361.125 11.4183C360.749 11.3686 360.404 11.3438 360.092 11.3438C359.424 11.3438 358.828 11.4893 358.302 11.7805C357.784 12.0646 357.372 12.4624 357.066 12.9737C356.768 13.4851 356.619 14.0746 356.619 14.7422V24H352.081ZM368.553 24.3089C367.509 24.3089 366.579 24.1278 365.762 23.7656C364.945 23.3963 364.299 22.853 363.823 22.1357C363.355 21.4112 363.12 20.5092 363.12 19.4297C363.12 18.5206 363.287 17.7571 363.621 17.1392C363.955 16.5213 364.409 16.0241 364.985 15.6477C365.56 15.2713 366.213 14.9872 366.945 14.7955C367.683 14.6037 368.458 14.4688 369.267 14.3906C370.219 14.2912 370.986 14.1989 371.568 14.1136C372.151 14.0213 372.573 13.8864 372.836 13.7088C373.099 13.5312 373.23 13.2685 373.23 12.9205V12.8565C373.23 12.1818 373.017 11.6598 372.591 11.2905C372.172 10.9212 371.575 10.7365 370.801 10.7365C369.985 10.7365 369.335 10.9176 368.852 11.2798C368.369 11.6349 368.049 12.0824 367.893 12.6222L363.695 12.2812C363.909 11.2869 364.328 10.4276 364.953 9.70312C365.578 8.97159 366.384 8.41051 367.371 8.01989C368.365 7.62216 369.516 7.4233 370.823 7.4233C371.732 7.4233 372.602 7.52983 373.433 7.7429C374.271 7.95597 375.013 8.28622 375.659 8.73366C376.313 9.18111 376.828 9.75639 377.204 10.4595C377.58 11.1555 377.769 11.9901 377.769 12.9631V24H373.465V21.7308H373.337C373.074 22.2422 372.722 22.6932 372.282 23.0838C371.842 23.4673 371.313 23.7692 370.695 23.9893C370.077 24.2024 369.363 24.3089 368.553 24.3089ZM369.853 21.1768C370.521 21.1768 371.11 21.0455 371.622 20.7827C372.133 20.5128 372.534 20.1506 372.825 19.696C373.117 19.2415 373.262 18.7266 373.262 18.1513V16.4148C373.12 16.5071 372.925 16.5923 372.676 16.6705C372.435 16.7415 372.161 16.8089 371.856 16.8729C371.551 16.9297 371.245 16.983 370.94 17.0327C370.634 17.0753 370.357 17.1143 370.109 17.1499C369.576 17.228 369.111 17.3523 368.713 17.5227C368.316 17.6932 368.007 17.924 367.786 18.2152C367.566 18.4993 367.456 18.8544 367.456 19.2805C367.456 19.8984 367.68 20.3707 368.127 20.6974C368.582 21.017 369.157 21.1768 369.853 21.1768ZM391.783 17.0327V7.63636H396.322V24H391.964V21.0277H391.794C391.425 21.9865 390.81 22.7571 389.951 23.3395C389.099 23.9219 388.058 24.2131 386.829 24.2131C385.736 24.2131 384.773 23.9645 383.942 23.4673C383.111 22.9702 382.461 22.2635 381.993 21.3473C381.531 20.4311 381.297 19.3338 381.29 18.0554V7.63636H385.828V17.2457C385.835 18.2116 386.094 18.9751 386.606 19.5362C387.117 20.0973 387.802 20.3778 388.662 20.3778C389.209 20.3778 389.72 20.2536 390.196 20.005C390.672 19.7493 391.055 19.3729 391.346 18.8757C391.645 18.3786 391.79 17.7642 391.783 17.0327ZM387.192 5.52699L389.45 0.679688H393.648L390.398 5.52699H387.192ZM399.952 7.63636H404.49V24.8097C404.49 26.0739 404.241 27.0966 403.744 27.8778C403.247 28.6591 402.533 29.2308 401.603 29.593C400.68 29.9553 399.575 30.1364 398.29 30.1364C398.134 30.1364 397.984 30.1328 397.842 30.1257C397.693 30.1257 397.537 30.1222 397.374 30.1151V26.5675C397.494 26.5746 397.601 26.5781 397.693 26.5781C397.778 26.5852 397.871 26.5888 397.97 26.5888C398.702 26.5888 399.213 26.4325 399.504 26.12C399.803 25.8146 399.952 25.353 399.952 24.7351V7.63636ZM402.21 5.52699C401.543 5.52699 400.967 5.30327 400.484 4.85582C400.001 4.40128 399.76 3.85795 399.76 3.22585C399.76 2.60085 400.001 2.06463 400.484 1.61719C400.967 1.16264 401.543 0.935368 402.21 0.935368C402.892 0.935368 403.471 1.16264 403.947 1.61719C404.43 2.06463 404.671 2.60085 404.671 3.22585C404.671 3.85795 404.43 4.40128 403.947 4.85582C403.471 5.30327 402.892 5.52699 402.21 5.52699ZM415.519 24.3196C413.864 24.3196 412.433 23.968 411.226 23.2649C410.025 22.5547 409.099 21.5675 408.445 20.3033C407.792 19.032 407.465 17.5582 407.465 15.8821C407.465 14.1918 407.792 12.7145 408.445 11.4503C409.099 10.179 410.025 9.19176 411.226 8.48864C412.433 7.77841 413.864 7.4233 415.519 7.4233C417.174 7.4233 418.601 7.77841 419.802 8.48864C421.009 9.19176 421.939 10.179 422.593 11.4503C423.246 12.7145 423.573 14.1918 423.573 15.8821C423.573 17.5582 423.246 19.032 422.593 20.3033C421.939 21.5675 421.009 22.5547 419.802 23.2649C418.601 23.968 417.174 24.3196 415.519 24.3196ZM415.54 20.804C416.293 20.804 416.922 20.5909 417.426 20.1648C417.93 19.7315 418.31 19.142 418.566 18.3963C418.829 17.6506 418.96 16.8018 418.96 15.8501C418.96 14.8984 418.829 14.0497 418.566 13.304C418.31 12.5582 417.93 11.9687 417.426 11.5355C416.922 11.1023 416.293 10.8857 415.54 10.8857C414.78 10.8857 414.141 11.1023 413.623 11.5355C413.111 11.9687 412.724 12.5582 412.461 13.304C412.206 14.0497 412.078 14.8984 412.078 15.8501C412.078 16.8018 412.206 17.6506 412.461 18.3963C412.724 19.142 413.111 19.7315 413.623 20.1648C414.141 20.5909 414.78 20.804 415.54 20.804ZM431.947 2.18182L431.531 17.4588H427.632L427.206 2.18182H431.947ZM429.581 24.277C428.878 24.277 428.275 24.0284 427.77 23.5312C427.266 23.027 427.018 22.4233 427.025 21.7202C427.018 21.0241 427.266 20.4276 427.77 19.9304C428.275 19.4332 428.878 19.1847 429.581 19.1847C430.256 19.1847 430.849 19.4332 431.361 19.9304C431.872 20.4276 432.131 21.0241 432.138 21.7202C432.131 22.1889 432.007 22.6186 431.765 23.0092C431.531 23.3928 431.222 23.7017 430.839 23.9361C430.455 24.1634 430.036 24.277 429.581 24.277Z" fill="#2D9296"/>
</svg>
