<svg width="292" height="30" viewBox="0 0 292 30" fill="none" xmlns="http://www.w3.org/2000/svg">
<g clip-path="url(#clip0_5_25)">
<g clip-path="url(#clip1_5_25)">
<mask id="mask0_5_25" style="mask-type:luminance" maskUnits="userSpaceOnUse" x="0" y="0" width="30" height="30">
<path d="M30 0H0V30H30V0Z" fill="white"/>
</mask>
<g mask="url(#mask0_5_25)">
<path d="M27.4376 2.625C27 2.18749 24.1875 2.6875 21.8439 3.31249C22.6875 3.8125 23.5624 4.49999 24.4063 5.34374C25.2812 6.21873 25.9689 7.09374 26.4688 7.96873C27.0939 5.56248 27.9062 3.0625 27.4376 2.625Z" fill="#2D9296"/>
<path d="M10.0313 11.5312L8.96879 11.125C8.53128 10.9687 8.06253 11.0625 7.71877 11.375L2.75002 16.3437C1.93753 17.1562 2.68754 18.5625 3.81254 18.3124L7.96878 17.3749C8.31254 15.8125 8.87504 13.7187 10.0313 11.5312Z" fill="#2D9296"/>
<path d="M18.3125 19.6875C16.2188 20.7812 14.2188 21.3749 12.5937 21.6874L11.625 26.125C11.375 27.25 12.75 28.0311 13.5938 27.1874L18.5625 22.2188C18.875 21.9062 19 21.4062 18.8125 20.9687L18.3125 19.6875Z" fill="#2D9296"/>
<path d="M20.1563 3.87498C18.3125 4.62498 16.2188 5.90624 14.1875 7.93749C10.4688 11.6562 9.37505 16.1562 9.06256 18.7187L11 20.6562C13.5626 20.3437 18.0938 19.2812 21.8126 15.5625C23.8438 13.5312 25.1251 11.4687 25.8751 9.62498C25.4688 8.59374 24.6564 7.37499 23.5001 6.18749C22.3751 5.09373 21.1876 4.28125 20.1563 3.87498ZM21.7501 10.625C21.0313 11.3437 19.8438 11.3437 19.0938 10.625C18.3751 9.90623 18.3751 8.71873 19.0938 7.96873C19.8125 7.24998 21.0001 7.24998 21.7501 7.96873C22.4688 8.71873 22.4688 9.90623 21.7501 10.625Z" fill="#2D9296"/>
<path d="M9.03128 20.6875C8.53128 20.1874 8.59379 19.3437 7.56254 20.3749C6.53129 21.4062 5.00003 23.7499 5.46878 24.25C5.96879 24.7499 8.31254 23.1874 9.34379 22.1562C10.375 21.0937 9.53129 21.1562 9.03128 20.6875Z" fill="#2D9296"/>
</g>
</g>
<path d="M44.5803 5.81818H49.321L54.3281 18.0341H54.5412L59.5483 5.81818H64.2891V24H60.5604V12.1658H60.4094L55.7042 23.9112H53.1651L48.4599 12.1214H48.3089V24H44.5803V5.81818ZM67.3852 24V10.3636H71.1672V24H67.3852ZM69.2851 8.60582C68.7228 8.60582 68.2404 8.41939 67.838 8.04652C67.4414 7.66773 67.2432 7.21496 67.2432 6.68821C67.2432 6.16738 67.4414 5.72053 67.838 5.34766C68.2404 4.96887 68.7228 4.77947 69.2851 4.77947C69.8473 4.77947 70.3267 4.96887 70.7233 5.34766C71.1257 5.72053 71.327 6.16738 71.327 6.68821C71.327 7.21496 71.1257 7.66773 70.7233 8.04652C70.3267 8.41939 69.8473 8.60582 69.2851 8.60582ZM77.9787 16.1165V24H74.1967V10.3636H77.8011V12.7695H77.9609C78.2628 11.9764 78.7688 11.3491 79.479 10.8874C80.1893 10.4199 81.0504 10.1861 82.0625 10.1861C83.0095 10.1861 83.8351 10.3932 84.5394 10.8075C85.2437 11.2218 85.7912 11.8137 86.1818 12.5831C86.5724 13.3466 86.7678 14.258 86.7678 15.3175V24H82.9858V15.9922C82.9917 15.1577 82.7786 14.5066 82.3466 14.0391C81.9145 13.5656 81.3197 13.3288 80.5621 13.3288C80.0531 13.3288 79.6033 13.4383 79.2127 13.6573C78.828 13.8763 78.5262 14.1959 78.3072 14.6161C78.0941 15.0304 77.9846 15.5305 77.9787 16.1165ZM93.5305 16.1165V24H89.7485V5.81818H93.4239V12.7695H93.5837C93.8915 11.9646 94.3886 11.3343 95.0752 10.8786C95.7617 10.4169 96.6229 10.1861 97.6586 10.1861C98.6056 10.1861 99.4313 10.3932 100.136 10.8075C100.846 11.2159 101.396 11.8048 101.787 12.5742C102.183 13.3377 102.379 14.2521 102.373 15.3175V24H98.5908V15.9922C98.5967 15.1518 98.3837 14.4978 97.9516 14.0302C97.5255 13.5626 96.9277 13.3288 96.1583 13.3288C95.6434 13.3288 95.1876 13.4383 94.7911 13.6573C94.4005 13.8763 94.0927 14.1959 93.8678 14.6161C93.6488 15.0304 93.5364 15.5305 93.5305 16.1165ZM109.238 24.2575C108.368 24.2575 107.592 24.1065 106.912 23.8047C106.231 23.4969 105.692 23.0442 105.296 22.4464C104.905 21.8427 104.71 21.091 104.71 20.1914C104.71 19.4338 104.849 18.7976 105.127 18.2827C105.405 17.7678 105.784 17.3535 106.263 17.0398C106.743 16.7261 107.287 16.4893 107.897 16.3295C108.513 16.1697 109.158 16.0573 109.832 15.9922C110.625 15.9093 111.265 15.8324 111.75 15.7614C112.235 15.6844 112.587 15.572 112.806 15.424C113.025 15.276 113.135 15.0571 113.135 14.767V14.7138C113.135 14.1515 112.957 13.7165 112.602 13.4087C112.253 13.101 111.756 12.9471 111.111 12.9471C110.43 12.9471 109.889 13.098 109.486 13.3999C109.084 13.6958 108.817 14.0687 108.687 14.5185L105.189 14.2344C105.367 13.4058 105.716 12.6896 106.237 12.0859C106.758 11.4763 107.429 11.0088 108.252 10.6832C109.081 10.3518 110.04 10.1861 111.129 10.1861C111.886 10.1861 112.611 10.2749 113.304 10.4524C114.002 10.63 114.621 10.9052 115.159 11.2781C115.704 11.6509 116.133 12.1303 116.446 12.7163C116.76 13.2963 116.917 13.9917 116.917 14.8026V24H113.33V22.109H113.224C113.005 22.5352 112.712 22.911 112.345 23.2365C111.978 23.5561 111.537 23.8076 111.022 23.9911C110.507 24.1687 109.912 24.2575 109.238 24.2575ZM110.321 21.6474C110.877 21.6474 111.368 21.5379 111.794 21.3189C112.221 21.094 112.555 20.7921 112.798 20.4134C113.04 20.0346 113.162 19.6055 113.162 19.1261V17.679C113.043 17.7559 112.88 17.8269 112.673 17.892C112.472 17.9512 112.244 18.0075 111.99 18.0607C111.735 18.1081 111.481 18.1525 111.226 18.1939C110.972 18.2294 110.741 18.262 110.534 18.2915C110.09 18.3567 109.702 18.4602 109.371 18.6023C109.039 18.7443 108.782 18.9367 108.598 19.1793C108.415 19.4161 108.323 19.712 108.323 20.0671C108.323 20.582 108.51 20.9756 108.882 21.2479C109.261 21.5142 109.741 21.6474 110.321 21.6474ZM131.197 14.2521L127.735 14.4652C127.675 14.1693 127.548 13.9029 127.353 13.6662C127.157 13.4235 126.9 13.2312 126.58 13.0891C126.267 12.9412 125.891 12.8672 125.453 12.8672C124.867 12.8672 124.373 12.9915 123.97 13.2401C123.568 13.4827 123.367 13.8082 123.367 14.2166C123.367 14.5421 123.497 14.8174 123.757 15.0423C124.018 15.2672 124.465 15.4477 125.098 15.5838L127.566 16.081C128.892 16.3532 129.88 16.7912 130.531 17.3949C131.182 17.9986 131.508 18.7917 131.508 19.7741C131.508 20.6679 131.244 21.4521 130.718 22.1268C130.197 22.8015 129.481 23.3282 128.569 23.707C127.664 24.0799 126.619 24.2663 125.435 24.2663C123.63 24.2663 122.192 23.8905 121.121 23.1388C120.055 22.3813 119.431 21.3514 119.247 20.0494L122.967 19.854C123.08 20.4045 123.352 20.8247 123.784 21.1147C124.216 21.3988 124.769 21.5408 125.444 21.5408C126.107 21.5408 126.64 21.4136 127.042 21.1591C127.45 20.8987 127.658 20.5643 127.664 20.1559C127.658 19.8126 127.513 19.5315 127.229 19.3125C126.944 19.0876 126.506 18.916 125.915 18.7976L123.553 18.3271C122.221 18.0607 121.23 17.5991 120.579 16.9421C119.934 16.2852 119.611 15.4477 119.611 14.4297C119.611 13.5537 119.848 12.7991 120.322 12.1658C120.801 11.5326 121.473 11.0443 122.337 10.701C123.207 10.3577 124.225 10.1861 125.391 10.1861C127.113 10.1861 128.468 10.5501 129.457 11.2781C130.451 12.006 131.031 12.9974 131.197 14.2521ZM139.054 8.98757V5.81818H153.986V8.98757H148.42V24H144.62V8.98757H139.054ZM160.611 24.2663C159.209 24.2663 158.001 23.9822 156.989 23.4141C155.983 22.84 155.208 22.0291 154.663 20.9815C154.119 19.928 153.847 18.6822 153.847 17.244C153.847 15.8413 154.119 14.6102 154.663 13.5508C155.208 12.4914 155.974 11.6657 156.963 11.0739C157.957 10.482 159.123 10.1861 160.46 10.1861C161.36 10.1861 162.198 10.3311 162.973 10.6211C163.754 10.9052 164.435 11.3343 165.015 11.9084C165.601 12.4825 166.056 13.2045 166.382 14.0746C166.708 14.9387 166.87 15.9508 166.87 17.1108V18.1495H155.356V15.8058H163.31C163.31 15.2612 163.192 14.7789 162.955 14.3587C162.718 13.9384 162.39 13.61 161.97 13.3732C161.555 13.1306 161.073 13.0092 160.523 13.0092C159.949 13.0092 159.44 13.1424 158.996 13.4087C158.558 13.6692 158.214 14.0213 157.966 14.4652C157.717 14.9032 157.59 15.3915 157.584 15.93V18.1584C157.584 18.8331 157.708 19.4161 157.957 19.9073C158.211 20.3986 158.57 20.7773 159.031 21.0437C159.493 21.31 160.04 21.4432 160.674 21.4432C161.094 21.4432 161.478 21.384 161.828 21.2656C162.177 21.1473 162.476 20.9697 162.724 20.733C162.973 20.4962 163.162 20.2062 163.293 19.8629L166.79 20.0938C166.613 20.9342 166.249 21.6681 165.698 22.2955C165.154 22.9169 164.45 23.4022 163.585 23.7514C162.727 24.0947 161.736 24.2663 160.611 24.2663ZM175.5 24.2663C174.103 24.2663 172.901 23.9704 171.895 23.3786C170.895 22.7808 170.126 21.9522 169.587 20.8928C169.054 19.8333 168.788 18.6141 168.788 17.2351C168.788 15.8383 169.057 14.6132 169.596 13.5597C170.14 12.5002 170.913 11.6746 171.913 11.0827C172.913 10.485 174.103 10.1861 175.482 10.1861C176.671 10.1861 177.713 10.4021 178.607 10.8342C179.501 11.2662 180.208 11.8729 180.729 12.6541C181.249 13.4354 181.536 14.3527 181.59 15.4062H178.021C177.92 14.7256 177.654 14.1781 177.222 13.7638C176.796 13.3436 176.236 13.1335 175.544 13.1335C174.958 13.1335 174.446 13.2933 174.008 13.6129C173.576 13.9266 173.239 14.3853 172.996 14.989C172.753 15.5927 172.632 16.3236 172.632 17.1818C172.632 18.0518 172.75 18.7917 172.987 19.4013C173.23 20.0109 173.57 20.4755 174.008 20.7951C174.446 21.1147 174.958 21.2745 175.544 21.2745C175.976 21.2745 176.364 21.1857 176.707 21.0082C177.056 20.8306 177.343 20.5732 177.568 20.2358C177.799 19.8925 177.95 19.4812 178.021 19.0018H181.59C181.531 20.0434 181.246 20.9608 180.737 21.7539C180.234 22.5411 179.539 23.1566 178.651 23.6005C177.763 24.0444 176.713 24.2663 175.5 24.2663ZM187.793 16.1165V24H184.011V10.3636H187.616V12.7695H187.775C188.077 11.9764 188.583 11.3491 189.294 10.8874C190.004 10.4199 190.865 10.1861 191.877 10.1861C192.824 10.1861 193.65 10.3932 194.354 10.8075C195.058 11.2218 195.606 11.8137 195.996 12.5831C196.387 13.3466 196.582 14.258 196.582 15.3175V24H192.8V15.9922C192.806 15.1577 192.593 14.5066 192.161 14.0391C191.729 13.5656 191.134 13.3288 190.377 13.3288C189.868 13.3288 189.418 13.4383 189.027 13.6573C188.642 13.8763 188.341 14.1959 188.122 14.6161C187.909 15.0304 187.799 15.5305 187.793 16.1165ZM205.724 24.2663C204.345 24.2663 203.153 23.9734 202.146 23.3874C201.146 22.7956 200.374 21.9729 199.829 20.9194C199.285 19.86 199.013 18.6319 199.013 17.2351C199.013 15.8265 199.285 14.5954 199.829 13.5419C200.374 12.4825 201.146 11.6598 202.146 11.0739C203.153 10.482 204.345 10.1861 205.724 10.1861C207.103 10.1861 208.293 10.482 209.293 11.0739C210.299 11.6598 211.075 12.4825 211.619 13.5419C212.164 14.5954 212.436 15.8265 212.436 17.2351C212.436 18.6319 212.164 19.86 211.619 20.9194C211.075 21.9729 210.299 22.7956 209.293 23.3874C208.293 23.9734 207.103 24.2663 205.724 24.2663ZM205.742 21.3366C206.369 21.3366 206.893 21.1591 207.313 20.804C207.734 20.4429 208.05 19.9517 208.263 19.3303C208.482 18.7088 208.592 18.0015 208.592 17.2085C208.592 16.4154 208.482 15.7081 208.263 15.0866C208.05 14.4652 207.734 13.974 207.313 13.6129C206.893 13.2519 206.369 13.0714 205.742 13.0714C205.109 13.0714 204.576 13.2519 204.144 13.6129C203.718 13.974 203.395 14.4652 203.176 15.0866C202.963 15.7081 202.857 16.4154 202.857 17.2085C202.857 18.0015 202.963 18.7088 203.176 19.3303C203.395 19.9517 203.718 20.4429 204.144 20.804C204.576 21.1591 205.109 21.3366 205.742 21.3366ZM218.677 5.81818V24H214.895V5.81818H218.677ZM227.868 24.2663C226.489 24.2663 225.296 23.9734 224.29 23.3874C223.29 22.7956 222.517 21.9729 221.973 20.9194C221.428 19.86 221.156 18.6319 221.156 17.2351C221.156 15.8265 221.428 14.5954 221.973 13.5419C222.517 12.4825 223.29 11.6598 224.29 11.0739C225.296 10.482 226.489 10.1861 227.868 10.1861C229.247 10.1861 230.436 10.482 231.437 11.0739C232.443 11.6598 233.218 12.4825 233.763 13.5419C234.307 14.5954 234.579 15.8265 234.579 17.2351C234.579 18.6319 234.307 19.86 233.763 20.9194C233.218 21.9729 232.443 22.7956 231.437 23.3874C230.436 23.9734 229.247 24.2663 227.868 24.2663ZM227.885 21.3366C228.513 21.3366 229.037 21.1591 229.457 20.804C229.877 20.4429 230.194 19.9517 230.407 19.3303C230.626 18.7088 230.735 18.0015 230.735 17.2085C230.735 16.4154 230.626 15.7081 230.407 15.0866C230.194 14.4652 229.877 13.974 229.457 13.6129C229.037 13.2519 228.513 13.0714 227.885 13.0714C227.252 13.0714 226.72 13.2519 226.287 13.6129C225.861 13.974 225.539 14.4652 225.32 15.0866C225.107 15.7081 225 16.4154 225 17.2085C225 18.0015 225.107 18.7088 225.32 19.3303C225.539 19.9517 225.861 20.4429 226.287 20.804C226.72 21.1591 227.252 21.3366 227.885 21.3366ZM243.182 29.3977C241.957 29.3977 240.906 29.229 240.03 28.8917C239.16 28.5603 238.468 28.1075 237.953 27.5334C237.438 26.9593 237.104 26.3142 236.95 25.598L240.448 25.1275C240.554 25.3997 240.723 25.6542 240.954 25.891C241.184 26.1277 241.489 26.3171 241.868 26.4592C242.253 26.6071 242.72 26.6811 243.271 26.6811C244.093 26.6811 244.771 26.4799 245.304 26.0774C245.842 25.6809 246.112 25.015 246.112 24.0799V21.5852H245.952C245.786 21.964 245.538 22.3221 245.206 22.6594C244.875 22.9968 244.449 23.272 243.928 23.4851C243.407 23.6982 242.785 23.8047 242.063 23.8047C241.039 23.8047 240.107 23.5679 239.267 23.0945C238.432 22.6151 237.767 21.8841 237.269 20.9016C236.778 19.9132 236.532 18.6644 236.532 17.1552C236.532 15.6104 236.784 14.3202 237.287 13.2844C237.79 12.2487 238.459 11.4734 239.294 10.9585C240.134 10.4435 241.054 10.1861 242.055 10.1861C242.818 10.1861 243.457 10.3163 243.972 10.5767C244.487 10.8312 244.901 11.1508 245.215 11.5355C245.535 11.9143 245.78 12.2872 245.952 12.6541H246.094V10.3636H249.849V24.1332C249.849 25.2932 249.565 26.2638 248.997 27.0451C248.429 27.8263 247.642 28.4123 246.635 28.8029C245.635 29.1995 244.484 29.3977 243.182 29.3977ZM243.262 20.9638C243.872 20.9638 244.386 20.8129 244.807 20.511C245.233 20.2032 245.558 19.7653 245.783 19.1971C246.014 18.623 246.129 17.9364 246.129 17.1374C246.129 16.3384 246.017 15.646 245.792 15.06C245.567 14.4682 245.242 14.0095 244.816 13.6839C244.389 13.3584 243.872 13.1957 243.262 13.1957C242.64 13.1957 242.117 13.3643 241.691 13.7017C241.264 14.0331 240.942 14.4948 240.723 15.0866C240.504 15.6785 240.394 16.3621 240.394 17.1374C240.394 17.9246 240.504 18.6052 240.723 19.1793C240.948 19.7475 241.27 20.1884 241.691 20.5021C242.117 20.8099 242.64 20.9638 243.262 20.9638ZM252.859 24V10.3636H256.641V24H252.859ZM254.759 8.60582C254.196 8.60582 253.714 8.41939 253.312 8.04652C252.915 7.66773 252.717 7.21496 252.717 6.68821C252.717 6.16738 252.915 5.72053 253.312 5.34766C253.714 4.96887 254.196 4.77947 254.759 4.77947C255.321 4.77947 255.8 4.96887 256.197 5.34766C256.599 5.72053 256.801 6.16738 256.801 6.68821C256.801 7.21496 256.599 7.66773 256.197 8.04652C255.8 8.41939 255.321 8.60582 254.759 8.60582ZM263.559 24.2575C262.689 24.2575 261.914 24.1065 261.233 23.8047C260.552 23.4969 260.014 23.0442 259.617 22.4464C259.226 21.8427 259.031 21.091 259.031 20.1914C259.031 19.4338 259.17 18.7976 259.448 18.2827C259.727 17.7678 260.105 17.3535 260.585 17.0398C261.064 16.7261 261.609 16.4893 262.218 16.3295C262.834 16.1697 263.479 16.0573 264.154 15.9922C264.947 15.9093 265.586 15.8324 266.071 15.7614C266.557 15.6844 266.909 15.572 267.128 15.424C267.347 15.276 267.456 15.0571 267.456 14.767V14.7138C267.456 14.1515 267.279 13.7165 266.924 13.4087C266.574 13.101 266.077 12.9471 265.432 12.9471C264.751 12.9471 264.21 13.098 263.807 13.3999C263.405 13.6958 263.139 14.0687 263.008 14.5185L259.511 14.2344C259.688 13.4058 260.037 12.6896 260.558 12.0859C261.079 11.4763 261.751 11.0088 262.573 10.6832C263.402 10.3518 264.361 10.1861 265.45 10.1861C266.207 10.1861 266.932 10.2749 267.625 10.4524C268.323 10.63 268.942 10.9052 269.48 11.2781C270.025 11.6509 270.454 12.1303 270.768 12.7163C271.081 13.2963 271.238 13.9917 271.238 14.8026V24H267.652V22.109H267.545C267.326 22.5352 267.033 22.911 266.666 23.2365C266.299 23.5561 265.858 23.8076 265.343 23.9911C264.828 24.1687 264.234 24.2575 263.559 24.2575ZM264.642 21.6474C265.198 21.6474 265.69 21.5379 266.116 21.3189C266.542 21.094 266.876 20.7921 267.119 20.4134C267.362 20.0346 267.483 19.6055 267.483 19.1261V17.679C267.364 17.7559 267.202 17.8269 266.995 17.892C266.793 17.9512 266.565 18.0075 266.311 18.0607C266.056 18.1081 265.802 18.1525 265.547 18.1939C265.293 18.2294 265.062 18.262 264.855 18.2915C264.411 18.3567 264.023 18.4602 263.692 18.6023C263.361 18.7443 263.103 18.9367 262.92 19.1793C262.736 19.4161 262.644 19.712 262.644 20.0671C262.644 20.582 262.831 20.9756 263.204 21.2479C263.583 21.5142 264.062 21.6474 264.642 21.6474ZM285.518 14.2521L282.056 14.4652C281.997 14.1693 281.869 13.9029 281.674 13.6662C281.479 13.4235 281.221 13.2312 280.902 13.0891C280.588 12.9412 280.212 12.8672 279.774 12.8672C279.188 12.8672 278.694 12.9915 278.292 13.2401C277.889 13.4827 277.688 13.8082 277.688 14.2166C277.688 14.5421 277.818 14.8174 278.079 15.0423C278.339 15.2672 278.786 15.4477 279.419 15.5838L281.887 16.081C283.213 16.3532 284.201 16.7912 284.852 17.3949C285.503 17.9986 285.829 18.7917 285.829 19.7741C285.829 20.6679 285.566 21.4521 285.039 22.1268C284.518 22.8015 283.802 23.3282 282.89 23.707C281.985 24.0799 280.94 24.2663 279.756 24.2663C277.951 24.2663 276.513 23.8905 275.442 23.1388C274.377 22.3813 273.752 21.3514 273.569 20.0494L277.288 19.854C277.401 20.4045 277.673 20.8247 278.105 21.1147C278.537 21.3988 279.091 21.5408 279.765 21.5408C280.428 21.5408 280.961 21.4136 281.363 21.1591C281.772 20.8987 281.979 20.5643 281.985 20.1559C281.979 19.8126 281.834 19.5315 281.55 19.3125C281.266 19.0876 280.828 18.916 280.236 18.7976L277.874 18.3271C276.543 18.0607 275.551 17.5991 274.9 16.9421C274.255 16.2852 273.933 15.4477 273.933 14.4297C273.933 13.5537 274.169 12.7991 274.643 12.1658C275.122 11.5326 275.794 11.0443 276.658 10.701C277.528 10.3577 278.546 10.1861 279.712 10.1861C281.434 10.1861 282.79 10.5501 283.778 11.2781C284.772 12.006 285.352 12.9974 285.518 14.2521Z" fill="#2D9296"/>
</g>
<defs>
<clipPath id="clip0_5_25">
<rect width="292" height="30" fill="white"/>
</clipPath>
<clipPath id="clip1_5_25">
<rect width="30" height="30" fill="white"/>
</clipPath>
</defs>
</svg>
